<?xml version="1.0" encoding="UTF-8"?>
<svg width="490px" height="510px" viewBox="0 0 574 595" version="1.1" xmlns="http://www.w3.org/2000/svg" xmlns:xlink="http://www.w3.org/1999/xlink">
    <!-- Generator: Sketch 49.3 (51167) - http://www.bohemiancoding.com/sketch -->
    <title>head-lines</title>
    <desc>Created with Sketch.</desc>
    <defs>
        <link href="../css/svg-animate.css" type="text/css" rel="stylesheet" 
          xmlns="http://www.w3.org/1999/xhtml"/>
        <rect id="path-1" x="86.0908001" y="24.5666663" width="73.6296688" height="16.8734658" rx="8.43673289"></rect>
        <rect id="path-2" x="101.164325" y="132.226518" width="97.3487615" height="22.3090912" rx="11.1545456"></rect>
        <rect id="path-3" x="42.0926715" y="191.95411" width="236.917517" height="54.2935977" rx="27.1467989"></rect>
        <rect id="path-4" x="-4.90919987" y="154.566666" width="73.6296688" height="16.8734658" rx="8.43673289"></rect>
    </defs>
    <g id="Page-1" stroke="none" stroke-width="1" fill="none" fill-rule="evenodd">
        <g id="head-lines">
            <rect id="background" fill="#FFFFFF" x="0" y="0" width="574" height="595"></rect>
            <g id="vertical_line_4" transform="translate(302.000000, 341.000000)">
                <circle id="Oval-3" stroke="#EEEEEE" fill="#EEEEEE" cx="8.5" cy="160.5" r="8.5"></circle>
                <rect id="Rectangle-6" stroke="#EEEEEE" fill="#EEEEEE" transform="translate(55.838706, 106.381064) rotate(-47.907188) translate(-55.838706, -106.381064) " x="7.16432546" y="95.2265183" width="97.3487615" height="22.3090912" rx="11.1545456"></rect>
                <g id="Rectangle-6" transform="translate(122.905635, 33.003399) rotate(-47.907188) translate(-122.905635, -33.003399) ">
                    <use fill="#E94749" fill-rule="evenodd" xlink:href="#path-1"></use>
                    <rect stroke="#E94749" stroke-width="1" x="86.5908001" y="25.0666663" width="72.6296688" height="15.8734658" rx="7.93673289"></rect>
                </g>
            </g>
            <g id="vertical_line_8" transform="translate(247.000000, 261.000000)" fill="#EEEEEE" stroke="#EEEEEE">
                <rect id="Rectangle-6" transform="translate(83.508003, 145.488819) rotate(-47.907188) translate(-83.508003, -145.488819) " x="11.5080034" y="128.988819" width="144" height="33" rx="16.5"></rect>
                <rect id="Rectangle-6" transform="translate(172.838706, 44.381064) rotate(-47.907188) translate(-172.838706, -44.381064) " x="124.164325" y="33.2265183" width="97.3487615" height="22.3090912" rx="11.1545456"></rect>
                <rect id="Rectangle-6" transform="translate(17.721832, 227.655353) rotate(-47.907188) translate(-17.721832, -227.655353) " x="-2.73449704" y="222.967444" width="40.9126583" height="9.37581753" rx="4.68790877"></rect>
            </g>
            <g id="vertical_line_3" transform="translate(187.000000, 181.000000)">
                <rect id="Rectangle-6" stroke="#EEEEEE" fill="#EEEEEE" transform="translate(60.508003, 243.488819) rotate(-47.907188) translate(-60.508003, -243.488819) " x="-11.4919966" y="226.988819" width="144" height="33" rx="16.5"></rect>
                <g id="Rectangle-6" stroke-width="1" transform="translate(149.838706, 143.381064) rotate(-47.907188) translate(-149.838706, -143.381064) ">
                    <use fill="#E94749" fill-rule="evenodd" xlink:href="#path-2"></use>
                    <rect stroke="#E94749" stroke-width="1" x="101.664325" y="132.726518" width="96.3487615" height="21.3090912" rx="10.6545456"></rect>
                </g>
                <rect id="Rectangle-6" stroke="#EEEEEE" fill="#EEEEEE" transform="translate(213.905635, 69.003399) rotate(-47.907188) translate(-213.905635, -69.003399) " x="177.0908" y="60.5666663" width="73.6296688" height="16.8734658" rx="8.43673289"></rect>
                <rect id="Rectangle-6" stroke="#EEEEEE" fill="#EEEEEE" transform="translate(257.721832, 18.655353) rotate(-47.907188) translate(-257.721832, -18.655353) " x="237.265503" y="13.9674443" width="40.9126583" height="9.37581753" rx="4.68790877"></rect>
            </g>
            <g id="vertical_line_7" transform="translate(122.000000, 186.000000)" fill="#EEEEEE" stroke="#EEEEEE">
                <g id="oval_vertical" transform="translate(96.000000, 122.000000)">
                    <circle id="Oval-3" stroke="#E94749" fill="#E94749" cx="28.5" cy="53.5" r="8.5"></circle>
                    <circle id="Oval-3" stroke="#EEEEEE" fill="#EEEEEE" cx="48.5" cy="30.5" r="8.5"></circle>
                    <circle id="Oval-3" stroke="#EEEEEE" fill="#EEEEEE" cx="67.5" cy="8.5" r="8.5"></circle>
                    <circle id="Oval-3" stroke="#EEEEEE" fill="#EEEEEE" cx="8.5" cy="77.5" r="8.5"></circle>
                </g>
                <rect id="Rectangle-6" transform="translate(210.838706, 79.381064) rotate(-47.907188) translate(-210.838706, -79.381064) " x="162.164325" y="68.2265183" width="97.3487615" height="22.3090912" rx="11.1545456"></rect>
                <rect id="Rectangle-6" transform="translate(64.905635, 243.003399) rotate(-47.907188) translate(-64.905635, -243.003399) " x="28.0908001" y="234.566666" width="73.6296688" height="16.8734658" rx="8.43673289"></rect>
                <rect id="Rectangle-6" transform="translate(264.721832, 18.655353) rotate(-47.907188) translate(-264.721832, -18.655353) " x="244.265503" y="13.9674443" width="40.9126583" height="9.37581753" rx="4.68790877"></rect>
                <rect id="Rectangle-6" transform="translate(17.721832, 298.655353) rotate(-47.907188) translate(-17.721832, -298.655353) " x="-2.73449704" y="293.967444" width="40.9126583" height="9.37581753" rx="4.68790877"></rect>
            </g>
            <g id="vertical_line_2" transform="translate(88.000000, 64.000000)">
                <rect id="Rectangle-6" stroke="#EEEEEE" fill="#EEEEEE" transform="translate(294.508003, 64.488819) rotate(-47.907188) translate(-294.508003, -64.488819) " x="222.508003" y="47.988819" width="144" height="33" rx="16.5"></rect>
                <rect id="Rectangle-6" stroke="#EEEEEE" fill="#EEEEEE" transform="translate(41.838706, 353.381064) rotate(-47.907188) translate(-41.838706, -353.381064) " x="-6.83567454" y="342.226518" width="97.3487615" height="22.3090912" rx="11.1545456"></rect>
                <g id="Rectangle-6" transform="translate(160.551430, 219.100909) rotate(-47.907188) translate(-160.551430, -219.100909) ">
                    <use fill="#E94749" fill-rule="evenodd" xlink:href="#path-3"></use>
                    <rect stroke="#E94749" stroke-width="1" x="42.5926715" y="192.45411" width="235.917517" height="53.2935977" rx="26.6467989"></rect>
                </g>
            </g>
            <g id="vertical_line_6" transform="translate(107.000000, 100.000000)">
                <rect id="Rectangle-6" stroke="#EEEEEE" fill="#EEEEEE" transform="translate(70.138638, 182.690614) rotate(-47.907188) translate(-70.138638, -182.690614) " x="21.2177669" y="171.444436" width="97.8417424" height="22.4923546" rx="11.2461773"></rect>
                <rect id="Rectangle-6" stroke="#EEEEEE" fill="#EEEEEE" transform="translate(165.838706, 75.381064) rotate(-47.907188) translate(-165.838706, -75.381064) " x="117.164325" y="64.2265183" width="97.3487615" height="22.3090912" rx="11.1545456"></rect>
                <circle id="Oval-3" stroke="#E94749" fill="#E94749" cx="117.5" cy="129.5" r="11.5"></circle>
                <rect id="Rectangle-6" stroke="#EEEEEE" fill="#EEEEEE" transform="translate(18.533200, 244.366802) rotate(-47.907188) translate(-18.533200, -244.366802) " x="-2.3694371" y="239.576614" width="41.8052738" height="9.58037525" rx="4.79018762"></rect>
                <rect id="Rectangle-6" stroke="#EEEEEE" fill="#EEEEEE" transform="translate(218.721832, 18.655353) rotate(-47.907188) translate(-218.721832, -18.655353) " x="198.265503" y="13.9674443" width="40.9126583" height="9.37581753" rx="4.68790877"></rect>
            </g>
            <g id="vertical_line_5" transform="translate(117.000000, 105.000000)">
                <rect id="Rectangle-6" stroke="#EEEEEE" fill="#EEEEEE" transform="translate(146.905635, 33.003399) rotate(-47.907188) translate(-146.905635, -33.003399) " x="110.0908" y="24.5666663" width="73.6296688" height="16.8734658" rx="8.43673289"></rect>
                <rect id="Rectangle-6" stroke="#EEEEEE" fill="#EEEEEE" transform="translate(89.905635, 97.003399) rotate(-47.907188) translate(-89.905635, -97.003399) " x="53.0908001" y="88.5666663" width="73.6296688" height="16.8734658" rx="8.43673289"></rect>
                <g id="Rectangle-6" transform="translate(31.905635, 163.003399) rotate(-47.907188) translate(-31.905635, -163.003399) ">
                    <use fill="#E94749" fill-rule="evenodd" xlink:href="#path-4"></use>
                    <rect stroke="#E94749" stroke-width="1" x="-4.40919987" y="155.066666" width="72.6296688" height="15.8734658" rx="7.93673289"></rect>
                </g>
            </g>
            <g id="vertical_line_1" transform="translate(120.000000, 71.000000)" fill="#EEEEEE" stroke="#EEEEEE">
                <rect id="Rectangle-6" transform="translate(60.508003, 105.488819) rotate(-47.907188) translate(-60.508003, -105.488819) " x="-11.4919966" y="88.988819" width="144" height="33" rx="16.5"></rect>
                <rect id="Rectangle-6" transform="translate(133.671269, 24.374799) rotate(-47.907188) translate(-133.671269, -24.374799) " x="107.319346" y="18.3358163" width="52.7038469" height="12.0779649" rx="6.03898246"></rect>
            </g>
        </g>
    </g>
</svg>