<?xml version="1.0" encoding="UTF-8"?>
<svg width="136px" height="272px" viewBox="0 0 136 272" version="1.1" xmlns="http://www.w3.org/2000/svg" xmlns:xlink="http://www.w3.org/1999/xlink">
    <!-- Generator: Sketch 49.3 (51167) - http://www.bohemiancoding.com/sketch -->
    <title>Front lines</title>
    <desc>Created with Sketch.</desc>
    <defs></defs>
    <g id="Page-1" stroke="none" stroke-width="1" fill="none" fill-rule="evenodd">
        <g id="Desktop-HD" transform="translate(-1142.000000, -1320.000000)">
            <g id="Project-1" transform="translate(42.000000, 1122.000000)">
                <g id="Front-lines" transform="translate(1101.953778, 328.000000) rotate(-41.998408) translate(-1101.953778, -328.000000) translate(954.453778, 190.000000)">
                    <circle id="Oval-3" fill="#E94749" cx="181.511883" cy="174.13615" r="8.5"></circle>
                    <circle id="Oval-3" fill="#EEEEEE" cx="241.511883" cy="190.13615" r="8.5"></circle>
                    <circle id="Oval-3" fill="#EEEEEE" cx="260.511883" cy="169.13615" r="8.5"></circle>
                    <circle id="Oval-3" fill="#EEEEEE" cx="201.511883" cy="96.1361503" r="8.5"></circle>
                    <circle id="Oval-3" fill="#EEEEEE" cx="162.511883" cy="197.13615" r="8.5"></circle>
                    <circle id="Oval-3" fill="#E94749" cx="106.011883" cy="201.63615" r="8"></circle>
                    <rect id="Rectangle-6" fill="#EEEEEE" transform="translate(225.917294, 121.232724) rotate(-47.907188) translate(-225.917294, -121.232724) " x="177.242913" y="110.078179" width="97.3487615" height="22.3090912" rx="11.1545456"></rect>
                    <rect id="Rectangle-6" fill="#EEEEEE" transform="translate(151.917294, 148.232724) rotate(-47.907188) translate(-151.917294, -148.232724) " x="103.242913" y="137.078179" width="97.3487615" height="22.3090912" rx="11.1545456"></rect>
                    <rect id="Rectangle-6" fill="#EEEEEE" transform="translate(121.950663, 242.610389) rotate(-47.907188) translate(-121.950663, -242.610389) " x="85.1358283" y="234.173656" width="73.6296688" height="16.8734658" rx="8.43673289"></rect>
                    <rect id="Rectangle-6" fill="#EEEEEE" transform="translate(257.545083, 208.002952) rotate(-47.907188) translate(-257.545083, -208.002952) " x="236.642446" y="203.212765" width="41.8052738" height="9.58037525" rx="4.79018762"></rect>
                    <rect id="Rectangle-6" fill="#EEEEEE" transform="translate(228.203156, 63.958435) rotate(-47.907188) translate(-228.203156, -63.958435) " x="207.746827" y="59.2705264" width="40.9126583" height="9.37581753" rx="4.68790877"></rect>
                    <rect id="Rectangle-6" fill="#EEEEEE" transform="translate(74.307867, 234.886022) rotate(-47.907188) translate(-74.307867, -234.886022) " x="53.8515379" y="230.198114" width="40.9126583" height="9.37581753" rx="4.68790877"></rect>
                    <rect id="Rectangle-6" fill="#EEEEEE" transform="translate(215.203156, 222.958435) rotate(-47.907188) translate(-215.203156, -222.958435) " x="194.746827" y="218.270526" width="40.9126583" height="9.37581753" rx="4.68790877"></rect>
                    <rect id="Rectangle-6" fill="#EEEEEE" transform="translate(217.203156, 180.958435) rotate(-47.907188) translate(-217.203156, -180.958435) " x="196.746827" y="176.270526" width="40.9126583" height="9.37581753" rx="4.68790877"></rect>
                    <rect id="Rectangle-6" fill="#E94749" transform="translate(171.950663, 233.610389) rotate(-47.907188) translate(-171.950663, -233.610389) " x="135.135828" y="225.173656" width="73.6296688" height="16.8734658" rx="8.43673289"></rect>
                    <rect id="Rectangle-6" fill="#E94749" transform="translate(263.950663, 128.232724) rotate(-47.907188) translate(-263.950663, -128.232724) " x="227.135828" y="119.795991" width="73.6296688" height="16.8734658" rx="8.43673289"></rect>
                </g>
            </g>
        </g>
    </g>
</svg>